<svg width="325" height="86" viewBox="0 0 325 86" fill="none" xmlns="http://www.w3.org/2000/svg">
<g clip-path="url(#clip0_805_8)">
<g filter="url(#filter0_d_805_8)">
<path d="M10 23C10 14.1634 17.1634 7 26 7H309C317.837 7 325 14.1634 325 23V70C325 78.8366 317.837 86 309 86H26C17.1634 86 10 78.8366 10 70V23Z" fill="white"/>
<path d="M26 8.5H309C317.008 8.5 323.5 14.9919 323.5 23V70C323.5 78.0081 317.008 84.5 309 84.5H26C17.9919 84.5 11.5 78.0081 11.5 70V23C11.5 14.9919 17.9919 8.5 26 8.5Z" stroke="#489FBF" stroke-width="3"/>
</g>
<path d="M79.585 38.3924L79.5647 38.3843C79.5529 38.38 79.5413 38.3762 79.531 38.3662C79.497 38.3317 79.4819 38.2842 79.4901 38.2377L80.6203 31.7051L85.9204 36.7172L80.4083 38.9343C80.3933 38.9402 80.3766 38.9431 80.3601 38.9425H80.3381C80.3308 38.9382 80.3236 38.9327 80.3089 38.919C80.1038 38.703 79.8583 38.5246 79.585 38.3924ZM87.2728 37.9943L92.9399 43.3519C94.1169 44.466 94.7061 45.0217 94.921 45.6658C94.9532 45.7612 94.9795 45.8566 95 45.9547L81.4565 40.5321C81.4493 40.5292 81.442 40.5264 81.4346 40.524C81.3805 40.5033 81.3176 40.4798 81.3176 40.4272C81.3176 40.3747 81.382 40.3498 81.436 40.3291L81.4536 40.3222L87.2728 37.9943ZM94.769 47.6742C94.4766 48.194 93.9063 48.733 92.9414 49.6467L86.552 55.6858L78.2882 54.0589L78.2443 54.0508C78.1712 54.0396 78.0937 54.0273 78.0937 53.9651C78.0302 53.3136 77.6834 52.7163 77.136 52.316C77.1024 52.2842 77.1112 52.2345 77.1215 52.1889C77.1215 52.182 77.1215 52.1752 77.1244 52.1694L78.6786 43.1488L78.6843 43.1184C78.6929 43.0493 78.7063 42.9691 78.7721 42.9691C79.4449 42.89 80.0559 42.5588 80.4681 42.0499C80.4813 42.0362 80.49 42.0209 80.5076 42.0126C80.5543 41.9919 80.6099 42.0126 80.6582 42.032L94.7675 47.6744L94.769 47.6742ZM85.0826 57.0749L74.5759 67.0078L76.3743 56.558L76.3772 56.5443C76.3787 56.5306 76.3817 56.5167 76.3858 56.5042C76.4003 56.471 76.4384 56.4572 76.4749 56.4434L76.4925 56.4365C76.8863 56.2777 77.2345 56.0327 77.5087 55.7219C77.5438 55.6832 77.5862 55.6458 77.6403 55.6389C77.6543 55.6367 77.6686 55.6367 77.6826 55.6389L85.0809 57.0765L85.0826 57.0749ZM72.352 69.1102L71.1677 70.2299L58.0746 52.3407C58.0699 52.3342 58.065 52.3278 58.0601 52.3213C58.0397 52.295 58.0177 52.2688 58.0221 52.2383C58.0221 52.2162 58.0382 52.1969 58.0542 52.1803L58.0687 52.1623C58.1082 52.107 58.1419 52.0517 58.1784 51.9923L58.2076 51.9439L58.2122 51.9396C58.2328 51.9064 58.2517 51.8746 58.2867 51.8566C58.3174 51.8429 58.3599 51.8485 58.3935 51.8552L72.899 54.6833C72.9396 54.6892 72.9778 54.705 73.0101 54.7289C73.0292 54.747 73.0335 54.7663 73.0379 54.7884C73.243 55.522 73.7991 56.1229 74.541 56.4125C74.5819 56.432 74.5644 56.4747 74.5455 56.5204C74.5361 56.5404 74.5286 56.5612 74.5236 56.5826C74.3408 57.6331 72.7731 66.6706 72.352 69.1102ZM69.8781 71.4476C69.0053 72.2646 68.4906 72.6972 67.9087 72.8714C67.3349 73.0429 66.7192 73.0429 66.1454 72.8714C65.4641 72.6668 64.8748 72.1111 63.6978 70.997L50.5491 58.5664L53.9836 53.5308C53.9998 53.506 54.0158 53.4838 54.0421 53.4659C54.0786 53.441 54.1313 53.4522 54.1752 53.4659C54.9635 53.6907 55.8099 53.6502 56.5701 53.3511C56.6096 53.3374 56.649 53.3276 56.6797 53.3539C56.6952 53.3669 56.7088 53.382 56.7207 53.3981L69.8781 71.449L69.8781 71.4476ZM49.2815 57.368L46.2652 54.5164L52.2218 52.114C52.237 52.1077 52.2534 52.1045 52.2701 52.1043C52.3198 52.1043 52.349 52.1513 52.3753 52.1942C52.4352 52.2812 52.4986 52.3661 52.5654 52.4485L52.5845 52.4706C52.602 52.4941 52.5902 52.5176 52.5727 52.5397L49.2829 57.3679L49.2815 57.368ZM44.9303 53.2544L41.1142 49.6467C40.465 49.033 39.9942 48.5879 39.6667 48.205L51.27 50.4802C51.2845 50.4828 51.2991 50.4852 51.3138 50.4871C51.3855 50.4982 51.4644 50.5106 51.4644 50.5742C51.4644 50.6433 51.3781 50.6751 51.305 50.7013L51.2714 50.715L44.9303 53.2544ZM39 46.35C39.0133 46.1176 39.0574 45.8877 39.1316 45.6658C39.348 45.0217 39.9357 44.466 41.1142 43.3519L45.9976 38.7352C48.2461 41.8202 50.5007 44.9013 52.7613 47.9783C52.8008 48.0281 52.8446 48.0834 52.7993 48.1248C52.5859 48.3474 52.3724 48.5907 52.2218 48.8547C52.2054 48.8886 52.1803 48.9181 52.1487 48.9404C52.1296 48.9515 52.1092 48.9472 52.0873 48.9431H52.0844L39 46.3486V46.35ZM47.3047 37.4994L53.8681 31.2917C54.4866 31.5475 56.7338 32.4445 58.7413 33.2462C60.2619 33.8544 61.648 34.4073 62.0837 34.587C62.1275 34.6036 62.167 34.6202 62.186 34.6617C62.1978 34.6866 62.1917 34.7183 62.186 34.7446C61.9749 35.6549 62.2623 36.6045 62.9507 37.2714C62.9946 37.3129 62.9507 37.3723 62.9127 37.4234L62.8923 37.4525L56.2251 47.2154C56.2076 47.243 56.1915 47.2665 56.1622 47.2845C56.1272 47.3052 56.0774 47.2956 56.0365 47.2859C55.7772 47.2217 55.5106 47.1873 55.2426 47.1836C55.0028 47.1836 54.7425 47.2251 54.4794 47.2707H54.4779C54.4486 47.275 54.4223 47.2804 54.3989 47.2638C54.3731 47.2438 54.3509 47.22 54.3331 47.1933L47.3034 37.4995L47.3047 37.4994ZM55.1972 30.038L63.6978 22.0016C64.8748 20.8889 65.4641 20.3318 66.1454 20.1286C66.7192 19.9571 67.3349 19.9571 67.9087 20.1286C68.59 20.3318 69.1793 20.8889 70.3563 22.0016L72.1985 23.7432L66.1527 32.5952C66.1379 32.621 66.1173 32.6435 66.0928 32.6615C66.0562 32.685 66.005 32.6752 65.9612 32.6615C64.9935 32.3839 63.9432 32.5752 63.1539 33.173C63.1144 33.2117 63.056 33.1896 63.0063 33.1687C62.2167 32.8438 56.0759 30.3905 55.1972 30.038ZM73.4822 24.9569L79.0645 30.2343L77.7194 38.1104V38.1311C77.7183 38.1491 77.7141 38.1668 77.7076 38.1837C77.6931 38.2113 77.6637 38.2168 77.6345 38.2251C77.3469 38.3075 77.076 38.4351 76.8332 38.6025C76.8228 38.6097 76.8131 38.6175 76.804 38.626C76.7878 38.6426 76.7718 38.6578 76.7455 38.6605C76.7241 38.6611 76.7027 38.658 76.6826 38.6508L68.1761 35.2339L68.1599 35.227C68.1058 35.2063 68.0415 35.1814 68.0415 35.1289C67.9915 34.6807 67.8367 34.2487 67.5882 33.8641C67.5473 33.8005 67.502 33.7342 67.5371 33.6692L73.4822 24.9569ZM67.7332 36.8525L75.7076 40.0456C75.7514 40.065 75.7997 40.0829 75.8187 40.1257C75.8264 40.1515 75.8264 40.1787 75.8187 40.2045C75.7953 40.3151 75.7748 40.4409 75.7748 40.5681V40.7795C75.7748 40.8321 75.7178 40.8542 75.6652 40.8749L75.649 40.8803C74.3857 41.3904 57.9137 48.0307 57.8888 48.0307C57.864 48.0307 57.8376 48.0307 57.8128 48.0073C57.7689 47.9658 57.8128 47.9077 57.8523 47.8552C57.8594 47.8461 57.8659 47.8368 57.8726 47.8276L64.4258 38.2347L64.4376 38.2181C64.4756 38.1601 64.5195 38.0951 64.5896 38.0951L64.6554 38.1048C64.8046 38.1242 64.9362 38.1421 65.0692 38.1421C66.0634 38.1421 66.9846 37.6846 67.5402 36.9022C67.5535 36.8813 67.5702 36.8627 67.5899 36.8469C67.6294 36.8193 67.6879 36.8335 67.7332 36.8525ZM58.601 49.5486L76.5556 42.3097C76.5556 42.3097 76.5819 42.3097 76.6067 42.3332C76.7047 42.4258 76.788 42.488 76.8685 42.5461L76.9079 42.5696C76.9445 42.589 76.9811 42.611 76.9839 42.647C76.9839 42.6607 76.9839 42.6691 76.9809 42.6815L75.4427 51.6137L75.437 51.6496C75.4267 51.7187 75.4167 51.7975 75.3479 51.7975C74.5153 51.8507 73.7642 52.2887 73.3404 52.9683L73.3331 52.9794C73.3127 53.0112 73.2936 53.0416 73.26 53.0582C73.2293 53.0719 73.1898 53.0664 73.1576 53.0596L58.8393 50.2674C58.8248 50.2647 58.617 49.55 58.601 49.5486Z" fill="url(#paint0_radial_805_8)"/>
<path d="M124.065 38.368V41.56H119.049V55H115.305V41.56H110.289V38.368H124.065ZM123.826 48.784C123.826 47.664 123.994 46.688 124.33 45.856C124.682 45.008 125.138 44.304 125.698 43.744C126.258 43.184 126.898 42.76 127.618 42.472C128.354 42.184 129.106 42.04 129.874 42.04C131.666 42.04 133.082 42.592 134.122 43.696C135.162 44.784 135.682 46.392 135.682 48.52C135.682 48.728 135.674 48.96 135.658 49.216C135.642 49.456 135.626 49.672 135.61 49.864H127.498C127.578 50.6 127.922 51.184 128.53 51.616C129.138 52.048 129.954 52.264 130.978 52.264C131.634 52.264 132.274 52.208 132.898 52.096C133.538 51.968 134.058 51.816 134.458 51.64L134.938 54.544C134.746 54.64 134.49 54.736 134.17 54.832C133.85 54.928 133.49 55.008 133.09 55.072C132.706 55.152 132.29 55.216 131.842 55.264C131.394 55.312 130.946 55.336 130.498 55.336C129.362 55.336 128.37 55.168 127.522 54.832C126.69 54.496 125.994 54.04 125.434 53.464C124.89 52.872 124.482 52.176 124.21 51.376C123.954 50.576 123.826 49.712 123.826 48.784ZM132.226 47.416C132.21 47.112 132.154 46.816 132.058 46.528C131.978 46.24 131.842 45.984 131.65 45.76C131.474 45.536 131.242 45.352 130.954 45.208C130.682 45.064 130.338 44.992 129.922 44.992C129.522 44.992 129.178 45.064 128.89 45.208C128.602 45.336 128.362 45.512 128.17 45.736C127.978 45.96 127.826 46.224 127.714 46.528C127.618 46.816 127.546 47.112 127.498 47.416H132.226ZM142.066 52.432C142.722 52.432 143.186 52.368 143.458 52.24C143.73 52.112 143.866 51.864 143.866 51.496C143.866 51.208 143.69 50.96 143.338 50.752C142.986 50.528 142.45 50.28 141.73 50.008C141.17 49.8 140.658 49.584 140.194 49.36C139.746 49.136 139.362 48.872 139.042 48.568C138.722 48.248 138.474 47.872 138.298 47.44C138.122 47.008 138.034 46.488 138.034 45.88C138.034 44.696 138.474 43.76 139.354 43.072C140.234 42.384 141.442 42.04 142.978 42.04C143.746 42.04 144.482 42.112 145.186 42.256C145.89 42.384 146.45 42.528 146.866 42.688L146.242 45.472C145.826 45.328 145.37 45.2 144.874 45.088C144.394 44.976 143.85 44.92 143.242 44.92C142.122 44.92 141.562 45.232 141.562 45.856C141.562 46 141.586 46.128 141.634 46.24C141.682 46.352 141.778 46.464 141.922 46.576C142.066 46.672 142.258 46.784 142.498 46.912C142.754 47.024 143.074 47.152 143.458 47.296C144.242 47.584 144.89 47.872 145.402 48.16C145.914 48.432 146.314 48.736 146.602 49.072C146.906 49.392 147.114 49.752 147.226 50.152C147.354 50.552 147.418 51.016 147.418 51.544C147.418 52.792 146.946 53.736 146.002 54.376C145.074 55.016 143.754 55.336 142.042 55.336C140.922 55.336 139.986 55.24 139.234 55.048C138.498 54.856 137.986 54.696 137.698 54.568L138.298 51.664C138.906 51.904 139.53 52.096 140.17 52.24C140.81 52.368 141.442 52.432 142.066 52.432ZM149.97 39.232L153.546 38.656V42.376H157.842V45.352H153.546V49.792C153.546 50.544 153.674 51.144 153.93 51.592C154.202 52.04 154.738 52.264 155.538 52.264C155.922 52.264 156.314 52.232 156.714 52.168C157.13 52.088 157.506 51.984 157.842 51.856L158.346 54.64C157.914 54.816 157.434 54.968 156.906 55.096C156.378 55.224 155.73 55.288 154.962 55.288C153.986 55.288 153.178 55.16 152.538 54.904C151.898 54.632 151.386 54.264 151.002 53.8C150.618 53.32 150.346 52.744 150.186 52.072C150.042 51.4 149.97 50.656 149.97 49.84V39.232ZM159.685 48.784C159.685 47.664 159.853 46.688 160.189 45.856C160.541 45.008 160.997 44.304 161.557 43.744C162.117 43.184 162.757 42.76 163.477 42.472C164.213 42.184 164.965 42.04 165.733 42.04C167.525 42.04 168.941 42.592 169.981 43.696C171.021 44.784 171.541 46.392 171.541 48.52C171.541 48.728 171.533 48.96 171.517 49.216C171.501 49.456 171.485 49.672 171.469 49.864H163.357C163.437 50.6 163.781 51.184 164.389 51.616C164.997 52.048 165.813 52.264 166.837 52.264C167.493 52.264 168.133 52.208 168.757 52.096C169.397 51.968 169.917 51.816 170.317 51.64L170.797 54.544C170.605 54.64 170.349 54.736 170.029 54.832C169.709 54.928 169.349 55.008 168.949 55.072C168.565 55.152 168.149 55.216 167.701 55.264C167.253 55.312 166.805 55.336 166.357 55.336C165.221 55.336 164.229 55.168 163.381 54.832C162.549 54.496 161.853 54.04 161.293 53.464C160.749 52.872 160.341 52.176 160.069 51.376C159.813 50.576 159.685 49.712 159.685 48.784ZM168.085 47.416C168.069 47.112 168.013 46.816 167.917 46.528C167.837 46.24 167.701 45.984 167.509 45.76C167.333 45.536 167.101 45.352 166.813 45.208C166.541 45.064 166.197 44.992 165.781 44.992C165.381 44.992 165.037 45.064 164.749 45.208C164.461 45.336 164.221 45.512 164.029 45.736C163.837 45.96 163.685 46.224 163.573 46.528C163.477 46.816 163.405 47.112 163.357 47.416H168.085ZM184.891 52.504C185.243 52.504 185.579 52.496 185.899 52.48C186.219 52.464 186.475 52.44 186.667 52.408V49.696C186.523 49.664 186.307 49.632 186.019 49.6C185.731 49.568 185.467 49.552 185.227 49.552C184.891 49.552 184.571 49.576 184.267 49.624C183.979 49.656 183.723 49.728 183.499 49.84C183.275 49.952 183.099 50.104 182.971 50.296C182.843 50.488 182.779 50.728 182.779 51.016C182.779 51.576 182.963 51.968 183.331 52.192C183.715 52.4 184.235 52.504 184.891 52.504ZM184.603 42.04C185.659 42.04 186.539 42.16 187.243 42.4C187.947 42.64 188.507 42.984 188.923 43.432C189.355 43.88 189.659 44.424 189.835 45.064C190.011 45.704 190.099 46.416 190.099 47.2V54.64C189.587 54.752 188.875 54.88 187.963 55.024C187.051 55.184 185.947 55.264 184.651 55.264C183.835 55.264 183.091 55.192 182.419 55.048C181.763 54.904 181.195 54.672 180.715 54.352C180.235 54.016 179.867 53.584 179.611 53.056C179.355 52.528 179.227 51.88 179.227 51.112C179.227 50.376 179.371 49.752 179.659 49.24C179.963 48.728 180.363 48.32 180.859 48.016C181.355 47.712 181.923 47.496 182.563 47.368C183.203 47.224 183.867 47.152 184.555 47.152C185.019 47.152 185.427 47.176 185.779 47.224C186.147 47.256 186.443 47.304 186.667 47.368V47.032C186.667 46.424 186.483 45.936 186.115 45.568C185.747 45.2 185.107 45.016 184.195 45.016C183.587 45.016 182.987 45.064 182.395 45.16C181.803 45.24 181.291 45.36 180.859 45.52L180.403 42.64C180.611 42.576 180.867 42.512 181.171 42.448C181.491 42.368 181.835 42.304 182.203 42.256C182.571 42.192 182.955 42.144 183.355 42.112C183.771 42.064 184.187 42.04 184.603 42.04ZM202.146 48.592C202.146 49.696 202.394 50.584 202.89 51.256C203.386 51.928 204.122 52.264 205.098 52.264C205.418 52.264 205.714 52.256 205.986 52.24C206.258 52.208 206.482 52.176 206.658 52.144V45.64C206.434 45.496 206.138 45.376 205.77 45.28C205.418 45.184 205.058 45.136 204.69 45.136C202.994 45.136 202.146 46.288 202.146 48.592ZM210.234 54.592C209.914 54.688 209.546 54.784 209.13 54.88C208.714 54.96 208.274 55.032 207.81 55.096C207.362 55.16 206.898 55.208 206.418 55.24C205.954 55.288 205.506 55.312 205.074 55.312C204.034 55.312 203.106 55.16 202.29 54.856C201.474 54.552 200.786 54.12 200.226 53.56C199.666 52.984 199.234 52.296 198.93 51.496C198.642 50.68 198.498 49.768 198.498 48.76C198.498 47.736 198.626 46.816 198.882 46C199.138 45.168 199.506 44.464 199.986 43.888C200.466 43.312 201.05 42.872 201.738 42.568C202.442 42.264 203.242 42.112 204.138 42.112C204.634 42.112 205.074 42.16 205.458 42.256C205.858 42.352 206.258 42.488 206.658 42.664V36.952L210.234 36.376V54.592ZM212.982 48.784C212.982 47.664 213.15 46.688 213.486 45.856C213.838 45.008 214.294 44.304 214.854 43.744C215.414 43.184 216.054 42.76 216.774 42.472C217.51 42.184 218.262 42.04 219.03 42.04C220.822 42.04 222.238 42.592 223.278 43.696C224.318 44.784 224.838 46.392 224.838 48.52C224.838 48.728 224.83 48.96 224.814 49.216C224.798 49.456 224.782 49.672 224.766 49.864H216.654C216.734 50.6 217.078 51.184 217.686 51.616C218.294 52.048 219.11 52.264 220.134 52.264C220.79 52.264 221.43 52.208 222.054 52.096C222.694 51.968 223.214 51.816 223.614 51.64L224.094 54.544C223.902 54.64 223.646 54.736 223.326 54.832C223.006 54.928 222.646 55.008 222.246 55.072C221.862 55.152 221.446 55.216 220.998 55.264C220.55 55.312 220.102 55.336 219.654 55.336C218.518 55.336 217.526 55.168 216.678 54.832C215.846 54.496 215.15 54.04 214.59 53.464C214.046 52.872 213.638 52.176 213.366 51.376C213.11 50.576 212.982 49.712 212.982 48.784ZM221.382 47.416C221.366 47.112 221.31 46.816 221.214 46.528C221.134 46.24 220.998 45.984 220.806 45.76C220.63 45.536 220.398 45.352 220.11 45.208C219.838 45.064 219.494 44.992 219.078 44.992C218.678 44.992 218.334 45.064 218.046 45.208C217.758 45.336 217.518 45.512 217.326 45.736C217.134 45.96 216.982 46.224 216.87 46.528C216.774 46.816 216.702 47.112 216.654 47.416H221.382ZM234.534 48.304C234.534 47.152 234.382 46.336 234.078 45.856C233.79 45.376 233.286 45.136 232.566 45.136C232.342 45.136 232.11 45.152 231.87 45.184C231.63 45.2 231.398 45.224 231.174 45.256V55H227.598V42.808C227.902 42.728 228.254 42.648 228.654 42.568C229.07 42.472 229.502 42.392 229.95 42.328C230.414 42.248 230.886 42.192 231.366 42.16C231.846 42.112 232.318 42.088 232.782 42.088C233.694 42.088 234.43 42.208 234.99 42.448C235.566 42.672 236.038 42.944 236.406 43.264C236.918 42.896 237.502 42.608 238.158 42.4C238.83 42.192 239.446 42.088 240.006 42.088C241.014 42.088 241.838 42.232 242.478 42.52C243.134 42.792 243.654 43.184 244.038 43.696C244.422 44.208 244.686 44.816 244.83 45.52C244.974 46.224 245.046 47.008 245.046 47.872V55H241.47V48.304C241.47 47.152 241.318 46.336 241.014 45.856C240.726 45.376 240.222 45.136 239.502 45.136C239.31 45.136 239.038 45.184 238.686 45.28C238.35 45.376 238.07 45.496 237.846 45.64C237.958 46.008 238.03 46.4 238.062 46.816C238.094 47.216 238.11 47.648 238.11 48.112V55H234.534V48.304ZM260.101 48.664C260.101 49.656 259.957 50.568 259.669 51.4C259.381 52.216 258.965 52.92 258.421 53.512C257.877 54.088 257.221 54.536 256.453 54.856C255.701 55.176 254.853 55.336 253.909 55.336C252.981 55.336 252.133 55.176 251.365 54.856C250.613 54.536 249.965 54.088 249.421 53.512C248.877 52.92 248.453 52.216 248.149 51.4C247.845 50.568 247.693 49.656 247.693 48.664C247.693 47.672 247.845 46.768 248.149 45.952C248.469 45.136 248.901 44.44 249.445 43.864C250.005 43.288 250.661 42.84 251.413 42.52C252.181 42.2 253.013 42.04 253.909 42.04C254.821 42.04 255.653 42.2 256.405 42.52C257.173 42.84 257.829 43.288 258.373 43.864C258.917 44.44 259.341 45.136 259.645 45.952C259.949 46.768 260.101 47.672 260.101 48.664ZM256.453 48.664C256.453 47.56 256.229 46.696 255.781 46.072C255.349 45.432 254.725 45.112 253.909 45.112C253.093 45.112 252.461 45.432 252.013 46.072C251.565 46.696 251.341 47.56 251.341 48.664C251.341 49.768 251.565 50.648 252.013 51.304C252.461 51.944 253.093 52.264 253.909 52.264C254.725 52.264 255.349 51.944 255.781 51.304C256.229 50.648 256.453 49.768 256.453 48.664Z" fill="#489FBF"/>
</g>
<defs>
<filter id="filter0_d_805_8" x="6" y="7" width="323" height="87" filterUnits="userSpaceOnUse" color-interpolation-filters="sRGB">
<feFlood flood-opacity="0" result="BackgroundImageFix"/>
<feColorMatrix in="SourceAlpha" type="matrix" values="0 0 0 0 0 0 0 0 0 0 0 0 0 0 0 0 0 0 127 0" result="hardAlpha"/>
<feOffset dy="4"/>
<feGaussianBlur stdDeviation="2"/>
<feComposite in2="hardAlpha" operator="out"/>
<feColorMatrix type="matrix" values="0 0 0 0 0 0 0 0 0 0 0 0 0 0 0 0 0 0 0.25 0"/>
<feBlend mode="normal" in2="BackgroundImageFix" result="effect1_dropShadow_805_8"/>
<feBlend mode="normal" in="SourceGraphic" in2="effect1_dropShadow_805_8" result="shape"/>
</filter>
<radialGradient id="paint0_radial_805_8" cx="0" cy="0" r="1" gradientUnits="userSpaceOnUse" gradientTransform="translate(67 -6.5) scale(56.1421 53.1345)">
<stop stop-color="#20C6B7"/>
<stop offset="1" stop-color="#4D9ABF"/>
</radialGradient>
<clipPath id="clip0_805_8">
<rect width="325" height="86" fill="white"/>
</clipPath>
</defs>
</svg>
